PathFileType	4	(X/Y/Z)	C:/Users/opensim2020/Desktop/walking_exp_matlab/subject01_walking09_straight_02.trc																																																																																																																															
DataRate	CameraRate	NumFrames	NumMarkers	Units	OrigDataRate	OrigDataStartFrame	OrigNumFrames																																																																																																																											
100	100	5	43	mm	100	2162	362																																																																																																																											
Frame#	Time	LFHD			RFHD			LBHD			RBHD			C7			T10			CLAV			STRN			RBAK			LSHO			LUPA			LELB			LFRM			LWRA			LWRB			LFIN			RSHO			RUPA			RELB			RFRM			RWRA			RWRB			RFIN			LASI			RASI			LPSI			RPSI			LTHI			LKNE			LTIB			LANK			LHEE			LTOE			RTHI			RKNE			RTIB			RANK			RHEE			RTOE			*39			*40			*41			*42		
		X1	Y1	Z1	X2	Y2	Z2	X3	Y3	Z3	X4	Y4	Z4	X5	Y5	Z5	X6	Y6	Z6	X7	Y7	Z7	X8	Y8	Z8	X9	Y9	Z9	X10	Y10	Z10	X11	Y11	Z11	X12	Y12	Z12	X13	Y13	Z13	X14	Y14	Z14	X15	Y15	Z15	X16	Y16	Z16	X17	Y17	Z17	X18	Y18	Z18	X19	Y19	Z19	X20	Y20	Z20	X21	Y21	Z21	X22	Y22	Z22	X23	Y23	Z23	X24	Y24	Z24	X25	Y25	Z25	X26	Y26	Z26	X27	Y27	Z27	X28	Y28	Z28	X29	Y29	Z29	X30	Y30	Z30	X31	Y31	Z31	X32	Y32	Z32	X33	Y33	Z33	X34	Y34	Z34	X35	Y35	Z35	X36	Y36	Z36	X37	Y37	Z37	X38	Y38	Z38	X39	Y39	Z39	X40	Y40	Z40	X41	Y41	Z41	X42	Y42	Z42	X43	Y43	Z43
																																																																																																																																		
272	2.71	566.75116	1658.96533	-1541.29761	587.80121	1660.4884	-1429.21118	444.8317	1637.1593	-1526.67383	463.82263	1638.67542	-1406.87549	382.65207	1432.97522	-1486.06396	350.18277	1137.30811	-1470.30493	525.59418	1364.27478	-1484.27515	570.97089	1211.22278	-1486.24902	329.15723	1237.43079	-1402.08374	465.52942	1393.33411	-1645.89368	444.24484	1206.6814	-1728.41663	436.91641	1054.73792	-1724.52661	486.84494	950.58649	-1739.87415	575.55078	845.99695	-1709.74976	522.57306	834.47852	-1737.06592	578.35852	772.03265	-1744.93652	462.5343	1395.76257	-1332.9729	412.06628	1195.32129	-1227.52014	417.69131	1069.83118	-1224.57446	454.60416	954.30652	-1196.07104	540.97742	843.48743	-1220.6637	501.862	841.72913	-1178.67676	544.92206	768.37524	-1181.79248	530.3421	932.07306	-1577.48853	528.42773	935.29291	-1359.25317	343.11215	942.0329	-1525.48206	344.69836	943.7226	-1379.51758	519.78625	597.86041	-1618.44653	519.31079	464.51428	-1595.34448	466.38202	281.39679	-1599.92017	428.4433	67.91747	-1547.29431	379.84454	39.28588	-1495.24768	573.43561	32.15434	-1550.42102	543.67108	606.73053	-1291.57483	573.27295	452.53333	-1308.62292	434.16022	346.3877	-1312.27063	295.38345	197.0782	-1362.71826	240.05916	193.78134	-1420.44373	365.41202	74.60564	-1349.78796	581.13776	1695.75122	-1451.1626	-1973.005	1023.49774	3101.95288	-2012.52771	1021.99774	3140.74341	NaN	NaN	NaN
273	2.72	574.13245	1658.87268	-1541.1178	594.89795	1660.21716	-1428.91675	452.19803	1637.34497	-1526.77551	470.84891	1638.70935	-1406.96533	389.49817	1433.16846	-1486.55115	356.46411	1137.62097	-1471.29407	532.28271	1364.20508	-1484.4884	577.33588	1211.09302	-1486.72656	335.4126	1237.65552	-1402.9939	472.65967	1393.59766	-1646.23364	452.21906	1207.04871	-1729.08655	445.66391	1055.12183	-1725.72058	496.60019	951.30951	-1740.86719	586.24768	847.53918	-1710.61853	533.45117	835.5274	-1737.95728	589.86743	773.57141	-1745.7522	469.02112	1395.66077	-1333.29163	417.44003	1195.15662	-1228.38452	423.13489	1069.67798	-1225.21741	459.3775	954.17688	-1196.80139	545.8158	843.28491	-1221.11755	506.2363	841.29041	-1179.14111	549.00153	767.74774	-1182.38989	536.16846	931.89612	-1578.32336	534.40436	935.91052	-1360.20496	348.96542	941.99219	-1525.98364	350.59967	943.95465	-1379.98047	523.43262	597.28381	-1618.75854	522.01648	463.97269	-1595.58569	467.95325	281.14096	-1599.89917	428.40536	68.16869	-1547.09753	379.85272	39.38709	-1495.18005	573.51373	32.12226	-1550.41785	553.57269	608.42468	-1292.14941	585.56165	454.6962	-1309.52393	449.1608	344.79575	-1313.02332	314.63812	191.15309	-1363.41748	258.94797	185.51668	-1420.97314	389.47977	72.27345	-1350.10522	588.43219	1695.57385	-1450.91479	-1973.05957	1023.84503	3101.97852	-2012.57788	1022.0849	3140.78125	NaN	NaN	NaN
274	2.73	581.57013	1658.78027	-1540.85779	602.08038	1659.97046	-1428.61963	459.5448	1637.50574	-1526.82874	478.04788	1638.71936	-1406.7002	396.32642	1433.34717	-1486.97656	362.72601	1137.85693	-1472.23071	539.04895	1364.11743	-1484.69983	583.72314	1210.96533	-1487.15613	341.72556	1237.79797	-1403.81714	479.82813	1393.80835	-1646.51086	460.09991	1207.35913	-1729.60083	454.38568	1055.3562	-1726.81946	506.37814	952.06506	-1741.90173	597.06311	849.21802	-1711.4624	544.4541	836.59619	-1738.87463	601.4104	775.18158	-1746.46252	475.3446	1395.51367	-1333.60852	422.87189	1194.97498	-1229.14417	428.24643	1069.53479	-1225.96497	464.12497	953.87537	-1197.5116	550.20258	842.672	-1221.57837	510.68912	840.91376	-1179.87268	553.37451	767.24146	-1182.92432	541.94586	931.54553	-1579.03442	540.34338	936.39581	-1361.02161	354.82925	941.9231	-1526.49402	356.70435	943.97089	-1380.35327	526.98871	596.68665	-1619.1272	524.75262	463.36798	-1595.78662	469.78369	280.91818	-1599.83948	428.68192	67.99093	-1547.10706	379.87952	39.56561	-1495.11865	573.50037	32.13034	-1550.39221	563.32587	610.06293	-1292.58594	597.45245	456.68359	-1310.40283	464.22382	342.42401	-1313.62415	334.33606	184.76216	-1364.01428	278.06488	177.62695	-1422.09119	414.4675	69.78036	-1349.93604	595.70599	1695.34094	-1450.578	-1973.27051	1023.25311	3101.89575	-2012.5155	1022.09491	3140.78296	NaN	NaN	NaN
275	2.74	588.94922	1658.67822	-1540.59412	609.18658	1659.65686	-1428.21729	466.84323	1637.6178	-1526.85901	484.93817	1638.64807	-1406.97668	403.16846	1433.4657	-1487.34241	368.97076	1138.04529	-1473.10059	545.69702	1364.07544	-1484.8584	590.10388	1210.71643	-1487.56311	348.05832	1237.90869	-1404.64722	486.91248	1394.00024	-1646.74426	468.01355	1207.70593	-1730.12561	463.05432	1055.63879	-1727.87378	516.10754	952.7525	-1742.80762	607.80756	850.89215	-1712.12842	555.41223	837.72577	-1739.6665	613.04517	776.83533	-1747.08508	481.92493	1395.2887	-1333.86694	428.45126	1194.73108	-1229.86414	433.41309	1069.31677	-1226.69592	468.9429	953.58685	-1198.15247	555.06989	842.36249	-1221.93994	515.40991	840.59198	-1180.5835	557.71655	766.71741	-1183.38232	547.76373	931.20526	-1579.69592	546.38452	936.83441	-1361.78931	360.64221	941.80859	-1526.94568	362.70813	944.08661	-1380.78394	530.61639	596.13239	-1619.39136	527.45325	462.78027	-1596.0166	471.79889	280.61063	-1599.81543	428.80432	68.04764	-1547.0271	379.98874	39.68714	-1495.05469	573.38757	32.15159	-1550.44153	572.95349	611.72705	-1293.10461	608.79089	458.4364	-1311.4115	479.44064	339.3429	-1314.15625	354.83417	177.66521	-1364.64331	299.03244	167.49812	-1422.79089	440.01401	67.30714	-1349.51538	602.97064	1695.06519	-1450.17676	-1973.1261	1023.43457	3101.9873	-2012.46167	1022.00757	3140.68579	NaN	NaN	NaN
276	2.75	596.38495	1658.46643	-1540.18713	616.30469	1659.27637	-1427.78528	474.15091	1637.68555	-1526.8042	492.09351	1638.55554	-1406.5979	410.05014	1433.65393	-1487.69275	375.23676	1138.22656	-1473.97034	552.41681	1363.82544	-1484.96448	596.50427	1210.44812	-1487.94995	354.46893	1237.94128	-1405.38904	493.99142	1394.15271	-1646.87109	475.93527	1207.97351	-1730.66638	471.74597	1055.95459	-1728.92395	525.99274	953.48816	-1743.68152	618.55872	852.56885	-1712.6991	566.44946	838.88818	-1740.41089	624.8056	778.70477	-1747.62622	488.39505	1395.04443	-1334.09143	434.06232	1194.52087	-1230.45935	438.60828	1069.0592	-1227.43567	473.86328	953.18549	-1198.73511	559.68335	841.8092	-1222.37439	519.95941	840.03674	-1181.05688	562.04126	766.14441	-1183.74329	553.58893	930.8446	-1580.29321	552.40826	937.11371	-1362.41565	366.49255	941.62775	-1527.30298	368.7616	943.98718	-1381.12158	534.21509	595.54254	-1619.67102	530.15442	462.10632	-1596.17114	473.72479	280.23947	-1599.69482	428.83084	68.20578	-1546.78064	379.84119	40.05556	-1495.05127	573.33423	32.1968	-1550.41272	582.26715	613.16028	-1293.58264	619.89227	459.96707	-1312.27881	494.87546	335.8031	-1314.67969	375.61804	170.29991	-1365.41797	320.35007	157.24626	-1423.61707	466.04324	64.56674	-1348.91223	610.1947	1694.74988	-1449.71191	-1973.16455	1023.34625	3101.81543	-2012.526	1021.93976	3140.68994	NaN	NaN	NaN
